<?xml version="1.0" encoding="UTF-8" standalone="no"?>
<!DOCTYPE svg PUBLIC "-//W3C//DTD SVG 1.1//EN"
 "http://www.w3.org/Graphics/SVG/1.1/DTD/svg11.dtd">
<!-- Generated by graphviz version 12.2.0 (20241103.1931)
 -->
<!-- Pages: 1 -->
<svg width="695pt" height="221pt"
 viewBox="0.00 0.00 694.50 221.00" xmlns="http://www.w3.org/2000/svg" xmlns:xlink="http://www.w3.org/1999/xlink">
<g id="graph0" class="graph" transform="scale(1 1) rotate(0) translate(4 217)">
<polygon fill="white" stroke="none" points="-4,4 -4,-217 690.5,-217 690.5,4 -4,4"/>
<!-- I0 -->
<g id="node1" class="node">
<title>I0</title>
<ellipse fill="white" stroke="black" cx="234" cy="-18" rx="27" ry="18"/>
<text text-anchor="middle" x="234" y="-12.95" font-family="Times,serif" font-size="14.00">I0</text>
</g>
<!-- H0 -->
<g id="node6" class="node">
<title>H0</title>
<ellipse fill="white" stroke="black" cx="296" cy="-106.5" rx="27" ry="18"/>
<text text-anchor="middle" x="296" y="-101.45" font-family="Times,serif" font-size="14.00">H0</text>
</g>
<!-- I0&#45;&gt;H0 -->
<g id="edge1" class="edge">
<title>I0&#45;&gt;H0</title>
<path fill="none" stroke="black" d="M245.08,-34.46C254.28,-47.3 267.54,-65.8 278.22,-80.7"/>
<polygon fill="black" stroke="black" points="275.25,-82.56 283.92,-88.65 280.94,-78.48 275.25,-82.56"/>
<text text-anchor="middle" x="278.75" y="-57.2" font-family="Times,serif" font-size="14.00">&#45;0.03</text>
</g>
<!-- H1 -->
<g id="node7" class="node">
<title>H1</title>
<ellipse fill="white" stroke="black" cx="513" cy="-106.5" rx="27" ry="18"/>
<text text-anchor="middle" x="513" y="-101.45" font-family="Times,serif" font-size="14.00">H1</text>
</g>
<!-- I0&#45;&gt;H1 -->
<g id="edge2" class="edge">
<title>I0&#45;&gt;H1</title>
<path fill="none" stroke="black" d="M258.27,-26.52C307.86,-41.9 420.96,-76.96 478.29,-94.74"/>
<polygon fill="black" stroke="black" points="476.95,-97.99 487.54,-97.61 479.02,-91.3 476.95,-97.99"/>
<text text-anchor="middle" x="493.43" y="-57.2" font-family="Times,serif" font-size="14.00">&#45;0.08</text>
</g>
<!-- H2 -->
<g id="node8" class="node">
<title>H2</title>
<ellipse fill="white" stroke="black" cx="119" cy="-106.5" rx="27" ry="18"/>
<text text-anchor="middle" x="119" y="-101.45" font-family="Times,serif" font-size="14.00">H2</text>
</g>
<!-- I0&#45;&gt;H2 -->
<g id="edge3" class="edge">
<title>I0&#45;&gt;H2</title>
<path fill="none" stroke="black" d="M216.53,-32.14C197.6,-46.38 167.16,-69.28 145.32,-85.7"/>
<polygon fill="black" stroke="black" points="143.35,-82.8 137.46,-91.61 147.56,-88.4 143.35,-82.8"/>
<text text-anchor="middle" x="59" y="-57.2" font-family="Times,serif" font-size="14.00">0.25</text>
</g>
<!-- I1 -->
<g id="node2" class="node">
<title>I1</title>
<ellipse fill="white" stroke="black" cx="378" cy="-18" rx="27" ry="18"/>
<text text-anchor="middle" x="378" y="-12.95" font-family="Times,serif" font-size="14.00">I1</text>
</g>
<!-- I1&#45;&gt;H0 -->
<g id="edge4" class="edge">
<title>I1&#45;&gt;H0</title>
<path fill="none" stroke="black" d="M364.09,-33.67C351.37,-47.09 332.35,-67.16 317.64,-82.67"/>
<polygon fill="black" stroke="black" points="315.36,-79.99 311.02,-89.66 320.44,-84.81 315.36,-79.99"/>
<text text-anchor="middle" x="358.59" y="-57.2" font-family="Times,serif" font-size="14.00">&#45;0.49</text>
</g>
<!-- I1&#45;&gt;H1 -->
<g id="edge5" class="edge">
<title>I1&#45;&gt;H1</title>
<path fill="none" stroke="black" d="M397.06,-31.21C419.87,-45.83 458.29,-70.45 484.61,-87.31"/>
<polygon fill="black" stroke="black" points="482.46,-90.09 492.77,-92.54 486.24,-84.19 482.46,-90.09"/>
<text text-anchor="middle" x="576" y="-57.2" font-family="Times,serif" font-size="14.00">0.07</text>
</g>
<!-- I1&#45;&gt;H2 -->
<g id="edge6" class="edge">
<title>I1&#45;&gt;H2</title>
<path fill="none" stroke="black" d="M354.1,-26.98C308.03,-42.37 206.81,-76.17 153.46,-93.99"/>
<polygon fill="black" stroke="black" points="152.66,-90.57 144.28,-97.06 154.87,-97.21 152.66,-90.57"/>
<text text-anchor="middle" x="189.75" y="-57.2" font-family="Times,serif" font-size="14.00">&#45;0.06</text>
</g>
<!-- I2 -->
<g id="node3" class="node">
<title>I2</title>
<ellipse fill="white" stroke="black" cx="162" cy="-18" rx="27" ry="18"/>
<text text-anchor="middle" x="162" y="-12.95" font-family="Times,serif" font-size="14.00">I2</text>
</g>
<!-- I2&#45;&gt;H0 -->
<g id="edge7" class="edge">
<title>I2&#45;&gt;H0</title>
<path fill="none" stroke="black" d="M180.91,-31.21C203.56,-45.83 241.7,-70.45 267.82,-87.31"/>
<polygon fill="black" stroke="black" points="265.61,-90.05 275.91,-92.53 269.41,-84.17 265.61,-90.05"/>
<text text-anchor="middle" x="239" y="-57.2" font-family="Times,serif" font-size="14.00">0.57</text>
</g>
<!-- I2&#45;&gt;H1 -->
<g id="edge8" class="edge">
<title>I2&#45;&gt;H1</title>
<path fill="none" stroke="black" d="M187.24,-25.22C248.59,-40.34 405.69,-79.05 476.92,-96.61"/>
<polygon fill="black" stroke="black" points="475.97,-99.98 486.52,-98.97 477.64,-93.18 475.97,-99.98"/>
<text text-anchor="middle" x="449" y="-57.2" font-family="Times,serif" font-size="14.00">0.23</text>
</g>
<!-- I2&#45;&gt;H2 -->
<g id="edge9" class="edge">
<title>I2&#45;&gt;H2</title>
<path fill="none" stroke="black" d="M153.91,-35.27C147.82,-47.52 139.35,-64.57 132.27,-78.8"/>
<polygon fill="black" stroke="black" points="129.19,-77.14 127.87,-87.65 135.46,-80.26 129.19,-77.14"/>
<text text-anchor="middle" x="12" y="-57.2" font-family="Times,serif" font-size="14.00">0.92</text>
</g>
<!-- I3 -->
<g id="node4" class="node">
<title>I3</title>
<ellipse fill="white" stroke="black" cx="306" cy="-18" rx="27" ry="18"/>
<text text-anchor="middle" x="306" y="-12.95" font-family="Times,serif" font-size="14.00">I3</text>
</g>
<!-- I3&#45;&gt;H0 -->
<g id="edge10" class="edge">
<title>I3&#45;&gt;H0</title>
<path fill="none" stroke="black" d="M304.02,-36.09C302.68,-47.74 300.86,-63.45 299.3,-76.98"/>
<polygon fill="black" stroke="black" points="295.85,-76.31 298.18,-86.65 302.8,-77.11 295.85,-76.31"/>
<text text-anchor="middle" x="311.75" y="-57.2" font-family="Times,serif" font-size="14.00">&#45;0.74</text>
</g>
<!-- I3&#45;&gt;H1 -->
<g id="edge11" class="edge">
<title>I3&#45;&gt;H1</title>
<path fill="none" stroke="black" d="M328.55,-28.42C365.1,-43.7 437.46,-73.94 479.88,-91.66"/>
<polygon fill="black" stroke="black" points="478.51,-94.88 489.08,-95.51 481.21,-88.42 478.51,-94.88"/>
<text text-anchor="middle" x="529" y="-57.2" font-family="Times,serif" font-size="14.00">0.75</text>
</g>
<!-- I3&#45;&gt;H2 -->
<g id="edge12" class="edge">
<title>I3&#45;&gt;H2</title>
<path fill="none" stroke="black" d="M284.18,-29.09C251.25,-44.33 188.65,-73.28 150.69,-90.84"/>
<polygon fill="black" stroke="black" points="149.66,-87.46 142.05,-94.84 152.6,-93.82 149.66,-87.46"/>
<text text-anchor="middle" x="108.75" y="-57.2" font-family="Times,serif" font-size="14.00">&#45;0.74</text>
</g>
<!-- I4 -->
<g id="node5" class="node">
<title>I4</title>
<ellipse fill="white" stroke="black" cx="633" cy="-18" rx="27" ry="18"/>
<text text-anchor="middle" x="633" y="-12.95" font-family="Times,serif" font-size="14.00">I4</text>
</g>
<!-- I4&#45;&gt;H0 -->
<g id="edge13" class="edge">
<title>I4&#45;&gt;H0</title>
<path fill="none" stroke="black" d="M607.95,-25.43C548.82,-40.61 400.46,-78.69 331.84,-96.3"/>
<polygon fill="black" stroke="black" points="331.04,-92.89 322.23,-98.77 332.78,-99.67 331.04,-92.89"/>
<text text-anchor="middle" x="616.12" y="-57.2" font-family="Times,serif" font-size="14.00">0.59</text>
</g>
<!-- I4&#45;&gt;H1 -->
<g id="edge14" class="edge">
<title>I4&#45;&gt;H1</title>
<path fill="none" stroke="black" d="M615.03,-31.95C595.13,-46.3 562.81,-69.6 539.88,-86.12"/>
<polygon fill="black" stroke="black" points="537.99,-83.17 531.92,-91.86 542.08,-88.85 537.99,-83.17"/>
<text text-anchor="middle" x="672.25" y="-57.2" font-family="Times,serif" font-size="14.00">&#45;0.86</text>
</g>
<!-- I4&#45;&gt;H2 -->
<g id="edge15" class="edge">
<title>I4&#45;&gt;H2</title>
<path fill="none" stroke="black" d="M606.8,-23.41C522.08,-37.67 255.23,-82.57 156.35,-99.22"/>
<polygon fill="black" stroke="black" points="155.92,-95.74 146.64,-100.85 157.08,-102.64 155.92,-95.74"/>
<text text-anchor="middle" x="405.38" y="-57.2" font-family="Times,serif" font-size="14.00">1.0</text>
</g>
<!-- O0 -->
<g id="node9" class="node">
<title>O0</title>
<ellipse fill="white" stroke="black" cx="145" cy="-195" rx="27" ry="18"/>
<text text-anchor="middle" x="145" y="-189.95" font-family="Times,serif" font-size="14.00">O0</text>
</g>
<!-- H0&#45;&gt;O0 -->
<g id="edge16" class="edge">
<title>H0&#45;&gt;O0</title>
<path fill="none" stroke="black" d="M275.95,-118.99C250.11,-133.79 204.97,-159.64 175.03,-176.79"/>
<polygon fill="black" stroke="black" points="173.39,-173.71 166.45,-181.71 176.86,-179.78 173.39,-173.71"/>
<text text-anchor="middle" x="158" y="-145.7" font-family="Times,serif" font-size="14.00">0.71</text>
</g>
<!-- O1 -->
<g id="node10" class="node">
<title>O1</title>
<ellipse fill="white" stroke="black" cx="46" cy="-195" rx="27" ry="18"/>
<text text-anchor="middle" x="46" y="-189.95" font-family="Times,serif" font-size="14.00">O1</text>
</g>
<!-- H0&#45;&gt;O1 -->
<g id="edge17" class="edge">
<title>H0&#45;&gt;O1</title>
<path fill="none" stroke="black" d="M272.48,-115.64C228.09,-131 131.8,-164.31 80.23,-182.16"/>
<polygon fill="black" stroke="black" points="79.38,-178.75 71.07,-185.33 81.66,-185.36 79.38,-178.75"/>
<text text-anchor="middle" x="78" y="-145.7" font-family="Times,serif" font-size="14.00">0.26</text>
</g>
<!-- O2 -->
<g id="node11" class="node">
<title>O2</title>
<ellipse fill="white" stroke="black" cx="440" cy="-195" rx="27" ry="18"/>
<text text-anchor="middle" x="440" y="-189.95" font-family="Times,serif" font-size="14.00">O2</text>
</g>
<!-- H0&#45;&gt;O2 -->
<g id="edge18" class="edge">
<title>H0&#45;&gt;O2</title>
<path fill="none" stroke="black" d="M315.72,-119.35C340.28,-134.1 382.45,-159.43 410.77,-176.44"/>
<polygon fill="black" stroke="black" points="408.85,-179.37 419.22,-181.52 412.45,-173.37 408.85,-179.37"/>
<text text-anchor="middle" x="436.5" y="-145.7" font-family="Times,serif" font-size="14.00">0.87</text>
</g>
<!-- O3 -->
<g id="node12" class="node">
<title>O3</title>
<ellipse fill="white" stroke="black" cx="296" cy="-195" rx="27" ry="18"/>
<text text-anchor="middle" x="296" y="-189.95" font-family="Times,serif" font-size="14.00">O3</text>
</g>
<!-- H0&#45;&gt;O3 -->
<g id="edge19" class="edge">
<title>H0&#45;&gt;O3</title>
<path fill="none" stroke="black" d="M296,-124.59C296,-136.24 296,-151.95 296,-165.48"/>
<polygon fill="black" stroke="black" points="292.5,-165.14 296,-175.14 299.5,-165.14 292.5,-165.14"/>
<text text-anchor="middle" x="304.62" y="-145.7" font-family="Times,serif" font-size="14.00">0.9</text>
</g>
<!-- O4 -->
<g id="node13" class="node">
<title>O4</title>
<ellipse fill="white" stroke="black" cx="579" cy="-195" rx="27" ry="18"/>
<text text-anchor="middle" x="579" y="-189.95" font-family="Times,serif" font-size="14.00">O4</text>
</g>
<!-- H0&#45;&gt;O4 -->
<g id="edge20" class="edge">
<title>H0&#45;&gt;O4</title>
<path fill="none" stroke="black" d="M320.13,-114.87C370.25,-130.2 485.82,-165.52 544.08,-183.33"/>
<polygon fill="black" stroke="black" points="542.9,-186.63 553.49,-186.2 544.95,-179.93 542.9,-186.63"/>
<text text-anchor="middle" x="575.5" y="-145.7" font-family="Times,serif" font-size="14.00">0.94</text>
</g>
<!-- H1&#45;&gt;O0 -->
<g id="edge21" class="edge">
<title>H1&#45;&gt;O0</title>
<path fill="none" stroke="black" d="M487.71,-113.45C423.74,-128.48 255.34,-168.07 181.07,-185.52"/>
<polygon fill="black" stroke="black" points="180.39,-182.09 171.46,-187.78 181.99,-188.9 180.39,-182.09"/>
<text text-anchor="middle" x="347.75" y="-145.7" font-family="Times,serif" font-size="14.00">&#45;0.07</text>
</g>
<!-- H1&#45;&gt;O1 -->
<g id="edge22" class="edge">
<title>H1&#45;&gt;O1</title>
<path fill="none" stroke="black" d="M487.23,-112.27C409.1,-126.75 174.67,-170.17 83.16,-187.12"/>
<polygon fill="black" stroke="black" points="82.66,-183.65 73.47,-188.91 83.94,-190.53 82.66,-183.65"/>
<text text-anchor="middle" x="203.75" y="-145.7" font-family="Times,serif" font-size="14.00">&#45;0.97</text>
</g>
<!-- H1&#45;&gt;O2 -->
<g id="edge23" class="edge">
<title>H1&#45;&gt;O2</title>
<path fill="none" stroke="black" d="M500.28,-122.57C489.15,-135.76 472.79,-155.14 459.92,-170.39"/>
<polygon fill="black" stroke="black" points="457.57,-167.76 453.79,-177.66 462.92,-172.27 457.57,-167.76"/>
<text text-anchor="middle" x="616" y="-145.7" font-family="Times,serif" font-size="14.00">0.77</text>
</g>
<!-- H1&#45;&gt;O3 -->
<g id="edge24" class="edge">
<title>H1&#45;&gt;O3</title>
<path fill="none" stroke="black" d="M490.19,-116.59C451.77,-131.91 373.99,-162.91 329.41,-180.68"/>
<polygon fill="black" stroke="black" points="328.23,-177.38 320.24,-184.34 330.82,-183.89 328.23,-177.38"/>
<text text-anchor="middle" x="479.35" y="-145.7" font-family="Times,serif" font-size="14.00">0.5</text>
</g>
<!-- H1&#45;&gt;O4 -->
<g id="edge25" class="edge">
<title>H1&#45;&gt;O4</title>
<path fill="none" stroke="black" d="M524.8,-122.96C534.69,-135.92 548.98,-154.65 560.4,-169.62"/>
<polygon fill="black" stroke="black" points="557.31,-171.35 566.16,-177.17 562.88,-167.1 557.31,-171.35"/>
<text text-anchor="middle" x="663" y="-145.7" font-family="Times,serif" font-size="14.00">0.04</text>
</g>
<!-- H2&#45;&gt;O0 -->
<g id="edge26" class="edge">
<title>H2&#45;&gt;O0</title>
<path fill="none" stroke="black" d="M124.14,-124.59C127.7,-136.44 132.52,-152.48 136.63,-166.16"/>
<polygon fill="black" stroke="black" points="133.21,-166.93 139.44,-175.5 139.91,-164.91 133.21,-166.93"/>
<text text-anchor="middle" x="108.75" y="-145.7" font-family="Times,serif" font-size="14.00">&#45;0.97</text>
</g>
<!-- H2&#45;&gt;O1 -->
<g id="edge27" class="edge">
<title>H2&#45;&gt;O1</title>
<path fill="none" stroke="black" d="M106.28,-122.57C95.15,-135.76 78.79,-155.14 65.92,-170.39"/>
<polygon fill="black" stroke="black" points="63.57,-167.76 59.79,-177.66 68.92,-172.27 63.57,-167.76"/>
<text text-anchor="middle" x="12" y="-145.7" font-family="Times,serif" font-size="14.00">0.86</text>
</g>
<!-- H2&#45;&gt;O2 -->
<g id="edge28" class="edge">
<title>H2&#45;&gt;O2</title>
<path fill="none" stroke="black" d="M143.92,-114.22C200.48,-129.46 338.71,-166.71 404.32,-184.38"/>
<polygon fill="black" stroke="black" points="403.29,-187.73 413.85,-186.95 405.11,-180.97 403.29,-187.73"/>
<text text-anchor="middle" x="399.75" y="-145.7" font-family="Times,serif" font-size="14.00">&#45;0.37</text>
</g>
<!-- H2&#45;&gt;O3 -->
<g id="edge29" class="edge">
<title>H2&#45;&gt;O3</title>
<path fill="none" stroke="black" d="M140.35,-117.93C171.31,-133.07 228.88,-161.2 264.66,-178.68"/>
<polygon fill="black" stroke="black" points="262.69,-181.62 273.21,-182.86 265.77,-175.33 262.69,-181.62"/>
<text text-anchor="middle" x="258.12" y="-145.7" font-family="Times,serif" font-size="14.00">&#45;0.24</text>
</g>
<!-- H2&#45;&gt;O4 -->
<g id="edge30" class="edge">
<title>H2&#45;&gt;O4</title>
<path fill="none" stroke="black" d="M145.05,-112.4C222.44,-126.95 451.23,-169.97 541.64,-186.97"/>
<polygon fill="black" stroke="black" points="540.99,-190.41 551.46,-188.82 542.28,-183.53 540.99,-190.41"/>
<text text-anchor="middle" x="531.96" y="-145.7" font-family="Times,serif" font-size="14.00">&#45;0.84</text>
</g>
</g>
</svg>
