<?xml version="1.0" encoding="UTF-8" standalone="no"?>
<!DOCTYPE svg PUBLIC "-//W3C//DTD SVG 1.1//EN"
 "http://www.w3.org/Graphics/SVG/1.1/DTD/svg11.dtd">
<!-- Generated by graphviz version 12.2.0 (20241103.1931)
 -->
<!-- Pages: 1 -->
<svg width="468pt" height="221pt"
 viewBox="0.00 0.00 467.50 221.00" xmlns="http://www.w3.org/2000/svg" xmlns:xlink="http://www.w3.org/1999/xlink">
<g id="graph0" class="graph" transform="scale(1 1) rotate(0) translate(4 217)">
<polygon fill="white" stroke="none" points="-4,4 -4,-217 463.5,-217 463.5,4 -4,4"/>
<!-- I0 -->
<g id="node1" class="node">
<title>I0</title>
<ellipse fill="white" stroke="black" cx="153" cy="-18" rx="27" ry="18"/>
<text text-anchor="middle" x="153" y="-12.95" font-family="Times,serif" font-size="14.00">I0</text>
</g>
<!-- H0 -->
<g id="node6" class="node">
<title>H0</title>
<ellipse fill="white" stroke="black" cx="127" cy="-106.5" rx="27" ry="18"/>
<text text-anchor="middle" x="127" y="-101.45" font-family="Times,serif" font-size="14.00">H0</text>
</g>
<!-- I0&#45;&gt;H0 -->
<g id="edge1" class="edge">
<title>I0&#45;&gt;H0</title>
<path fill="none" stroke="black" d="M147.86,-36.09C144.3,-47.94 139.48,-63.98 135.37,-77.66"/>
<polygon fill="black" stroke="black" points="132.09,-76.41 132.56,-87 138.79,-78.43 132.09,-76.41"/>
<text text-anchor="middle" x="68.12" y="-57.2" font-family="Times,serif" font-size="14.00">&#45;0.7</text>
</g>
<!-- H1 -->
<g id="node7" class="node">
<title>H1</title>
<ellipse fill="white" stroke="black" cx="283" cy="-106.5" rx="27" ry="18"/>
<text text-anchor="middle" x="283" y="-101.45" font-family="Times,serif" font-size="14.00">H1</text>
</g>
<!-- I0&#45;&gt;H1 -->
<g id="edge2" class="edge">
<title>I0&#45;&gt;H1</title>
<path fill="none" stroke="black" d="M171.63,-31.39C193.44,-45.91 229.8,-70.1 255.02,-86.88"/>
<polygon fill="black" stroke="black" points="252.88,-89.67 263.15,-92.29 256.76,-83.84 252.88,-89.67"/>
<text text-anchor="middle" x="263.43" y="-57.2" font-family="Times,serif" font-size="14.00">&#45;0.53</text>
</g>
<!-- I1 -->
<g id="node2" class="node">
<title>I1</title>
<ellipse fill="white" stroke="black" cx="27" cy="-18" rx="27" ry="18"/>
<text text-anchor="middle" x="27" y="-12.95" font-family="Times,serif" font-size="14.00">I1</text>
</g>
<!-- I1&#45;&gt;H0 -->
<g id="edge3" class="edge">
<title>I1&#45;&gt;H0</title>
<path fill="none" stroke="black" d="M43.07,-32.9C59.1,-46.77 83.96,-68.27 102.46,-84.28"/>
<polygon fill="black" stroke="black" points="99.98,-86.75 109.83,-90.65 104.56,-81.46 99.98,-86.75"/>
<text text-anchor="middle" x="38.75" y="-57.2" font-family="Times,serif" font-size="14.00">&#45;0.05</text>
</g>
<!-- I1&#45;&gt;H1 -->
<g id="edge4" class="edge">
<title>I1&#45;&gt;H1</title>
<path fill="none" stroke="black" d="M50.62,-26.98C95.94,-42.3 195.28,-75.86 248.2,-93.74"/>
<polygon fill="black" stroke="black" points="247.03,-97.04 257.63,-96.93 249.27,-90.41 247.03,-97.04"/>
<text text-anchor="middle" x="216.75" y="-57.2" font-family="Times,serif" font-size="14.00">&#45;0.93</text>
</g>
<!-- I2 -->
<g id="node3" class="node">
<title>I2</title>
<ellipse fill="white" stroke="black" cx="338" cy="-18" rx="27" ry="18"/>
<text text-anchor="middle" x="338" y="-12.95" font-family="Times,serif" font-size="14.00">I2</text>
</g>
<!-- I2&#45;&gt;H0 -->
<g id="edge5" class="edge">
<title>I2&#45;&gt;H0</title>
<path fill="none" stroke="black" d="M315.42,-28.26C278.16,-43.53 203.62,-74.09 160.3,-91.85"/>
<polygon fill="black" stroke="black" points="159.06,-88.57 151.14,-95.6 161.72,-95.05 159.06,-88.57"/>
<text text-anchor="middle" x="168.75" y="-57.2" font-family="Times,serif" font-size="14.00">&#45;0.83</text>
</g>
<!-- I2&#45;&gt;H1 -->
<g id="edge6" class="edge">
<title>I2&#45;&gt;H1</title>
<path fill="none" stroke="black" d="M327.91,-34.87C319.9,-47.47 308.54,-65.34 299.25,-79.95"/>
<polygon fill="black" stroke="black" points="296.43,-77.85 294.02,-88.16 302.34,-81.6 296.43,-77.85"/>
<text text-anchor="middle" x="332.39" y="-57.2" font-family="Times,serif" font-size="14.00">0.17</text>
</g>
<!-- I3 -->
<g id="node4" class="node">
<title>I3</title>
<ellipse fill="white" stroke="black" cx="252" cy="-18" rx="27" ry="18"/>
<text text-anchor="middle" x="252" y="-12.95" font-family="Times,serif" font-size="14.00">I3</text>
</g>
<!-- I3&#45;&gt;H0 -->
<g id="edge7" class="edge">
<title>I3&#45;&gt;H0</title>
<path fill="none" stroke="black" d="M233.82,-31.58C212.99,-45.99 178.63,-69.77 154.52,-86.46"/>
<polygon fill="black" stroke="black" points="152.67,-83.48 146.44,-92.05 156.66,-89.23 152.67,-83.48"/>
<text text-anchor="middle" x="116.75" y="-57.2" font-family="Times,serif" font-size="14.00">&#45;0.59</text>
</g>
<!-- I3&#45;&gt;H1 -->
<g id="edge8" class="edge">
<title>I3&#45;&gt;H1</title>
<path fill="none" stroke="black" d="M257.98,-35.68C262.28,-47.69 268.18,-64.16 273.18,-78.09"/>
<polygon fill="black" stroke="black" points="269.76,-78.92 276.42,-87.15 276.35,-76.56 269.76,-78.92"/>
<text text-anchor="middle" x="297.88" y="-57.2" font-family="Times,serif" font-size="14.00">&#45;0.7</text>
</g>
<!-- I4 -->
<g id="node5" class="node">
<title>I4</title>
<ellipse fill="white" stroke="black" cx="417" cy="-18" rx="27" ry="18"/>
<text text-anchor="middle" x="417" y="-12.95" font-family="Times,serif" font-size="14.00">I4</text>
</g>
<!-- I4&#45;&gt;H0 -->
<g id="edge9" class="edge">
<title>I4&#45;&gt;H0</title>
<path fill="none" stroke="black" d="M392.77,-26.23C341.49,-41.52 221.79,-77.23 162.12,-95.03"/>
<polygon fill="black" stroke="black" points="161.39,-91.59 152.81,-97.8 163.4,-98.3 161.39,-91.59"/>
<text text-anchor="middle" x="382.64" y="-57.2" font-family="Times,serif" font-size="14.00">&#45;0.69</text>
</g>
<!-- I4&#45;&gt;H1 -->
<g id="edge10" class="edge">
<title>I4&#45;&gt;H1</title>
<path fill="none" stroke="black" d="M398.09,-31.21C375.44,-45.83 337.3,-70.45 311.18,-87.31"/>
<polygon fill="black" stroke="black" points="309.59,-84.17 303.09,-92.53 313.39,-90.05 309.59,-84.17"/>
<text text-anchor="middle" x="445.25" y="-57.2" font-family="Times,serif" font-size="14.00">&#45;0.77</text>
</g>
<!-- O0 -->
<g id="node8" class="node">
<title>O0</title>
<ellipse fill="white" stroke="black" cx="179" cy="-195" rx="27" ry="18"/>
<text text-anchor="middle" x="179" y="-189.95" font-family="Times,serif" font-size="14.00">O0</text>
</g>
<!-- H0&#45;&gt;O0 -->
<g id="edge11" class="edge">
<title>H0&#45;&gt;O0</title>
<path fill="none" stroke="black" d="M136.78,-123.77C144.26,-136.21 154.73,-153.62 163.36,-167.99"/>
<polygon fill="black" stroke="black" points="160.33,-169.74 168.48,-176.51 166.33,-166.13 160.33,-169.74"/>
<text text-anchor="middle" x="171.91" y="-145.7" font-family="Times,serif" font-size="14.00">&#45;0.56</text>
</g>
<!-- H1&#45;&gt;O0 -->
<g id="edge12" class="edge">
<title>H1&#45;&gt;O0</title>
<path fill="none" stroke="black" d="M266.75,-121.02C249.98,-134.96 223.6,-156.9 204.14,-173.09"/>
<polygon fill="black" stroke="black" points="202.09,-170.24 196.64,-179.33 206.57,-175.62 202.09,-170.24"/>
<text text-anchor="middle" x="254.57" y="-145.7" font-family="Times,serif" font-size="14.00">&#45;0.32</text>
</g>
</g>
</svg>
