<?xml version="1.0" encoding="UTF-8" standalone="no"?>
<!DOCTYPE svg PUBLIC "-//W3C//DTD SVG 1.1//EN"
 "http://www.w3.org/Graphics/SVG/1.1/DTD/svg11.dtd">
<!-- Generated by graphviz version 12.2.0 (20241103.1931)
 -->
<!-- Pages: 1 -->
<svg width="450pt" height="221pt"
 viewBox="0.00 0.00 450.00 221.00" xmlns="http://www.w3.org/2000/svg" xmlns:xlink="http://www.w3.org/1999/xlink">
<g id="graph0" class="graph" transform="scale(1 1) rotate(0) translate(4 217)">
<polygon fill="white" stroke="none" points="-4,4 -4,-217 446,-217 446,4 -4,4"/>
<!-- I0 -->
<g id="node1" class="node">
<title>I0</title>
<ellipse fill="white" stroke="black" cx="177" cy="-18" rx="27" ry="18"/>
<text text-anchor="middle" x="177" y="-12.95" font-family="Times,serif" font-size="14.00">I0</text>
</g>
<!-- H0 -->
<g id="node6" class="node">
<title>H0</title>
<ellipse fill="white" stroke="black" cx="339" cy="-106.5" rx="27" ry="18"/>
<text text-anchor="middle" x="339" y="-101.45" font-family="Times,serif" font-size="14.00">H0</text>
</g>
<!-- I0&#45;&gt;H0 -->
<g id="edge5" class="edge">
<title>I0&#45;&gt;H0</title>
<path fill="none" stroke="black" d="M197.52,-29.96C225.56,-44.93 276.07,-71.9 308.54,-89.23"/>
<polygon fill="black" stroke="black" points="306.59,-92.16 317.06,-93.78 309.89,-85.99 306.59,-92.16"/>
<text text-anchor="middle" x="283" y="-57.2" font-family="Times,serif" font-size="14.00">0.12</text>
</g>
<!-- H1 -->
<g id="node7" class="node">
<title>H1</title>
<ellipse fill="white" stroke="black" cx="79" cy="-106.5" rx="27" ry="18"/>
<text text-anchor="middle" x="79" y="-101.45" font-family="Times,serif" font-size="14.00">H1</text>
</g>
<!-- I0&#45;&gt;H1 -->
<g id="edge9" class="edge">
<title>I0&#45;&gt;H1</title>
<path fill="none" stroke="black" d="M161.25,-32.9C145.54,-46.77 121.18,-68.27 103.04,-84.28"/>
<polygon fill="black" stroke="black" points="101.02,-81.39 95.84,-90.64 105.65,-86.64 101.02,-81.39"/>
<text text-anchor="middle" x="145.4" y="-57.2" font-family="Times,serif" font-size="14.00">0.5</text>
</g>
<!-- H2 -->
<g id="node8" class="node">
<title>H2</title>
<ellipse fill="white" stroke="black" cx="183" cy="-106.5" rx="27" ry="18"/>
<text text-anchor="middle" x="183" y="-101.45" font-family="Times,serif" font-size="14.00">H2</text>
</g>
<!-- I0&#45;&gt;H2 -->
<g id="edge14" class="edge">
<title>I0&#45;&gt;H2</title>
<path fill="none" stroke="black" d="M178.19,-36.09C178.99,-47.74 180.08,-63.45 181.02,-76.98"/>
<polygon fill="black" stroke="black" points="177.51,-76.91 181.69,-86.64 184.49,-76.42 177.51,-76.91"/>
<text text-anchor="middle" x="192.75" y="-57.2" font-family="Times,serif" font-size="14.00">&#45;0.42</text>
</g>
<!-- I1 -->
<g id="node2" class="node">
<title>I1</title>
<ellipse fill="white" stroke="black" cx="271" cy="-18" rx="27" ry="18"/>
<text text-anchor="middle" x="271" y="-12.95" font-family="Times,serif" font-size="14.00">I1</text>
</g>
<!-- I1&#45;&gt;H0 -->
<g id="edge3" class="edge">
<title>I1&#45;&gt;H0</title>
<path fill="none" stroke="black" d="M283.16,-34.46C293.41,-47.5 308.25,-66.38 320.06,-81.4"/>
<polygon fill="black" stroke="black" points="317.08,-83.28 326.01,-88.98 322.58,-78.95 317.08,-83.28"/>
<text text-anchor="middle" x="323.09" y="-57.2" font-family="Times,serif" font-size="14.00">0.82</text>
</g>
<!-- I2 -->
<g id="node3" class="node">
<title>I2</title>
<ellipse fill="white" stroke="black" cx="343" cy="-18" rx="27" ry="18"/>
<text text-anchor="middle" x="343" y="-12.95" font-family="Times,serif" font-size="14.00">I2</text>
</g>
<!-- I2&#45;&gt;H0 -->
<g id="edge4" class="edge">
<title>I2&#45;&gt;H0</title>
<path fill="none" stroke="black" d="M342.21,-36.09C341.67,-47.74 340.94,-63.45 340.32,-76.98"/>
<polygon fill="black" stroke="black" points="336.84,-76.49 339.87,-86.64 343.83,-76.81 336.84,-76.49"/>
<text text-anchor="middle" x="355.61" y="-57.2" font-family="Times,serif" font-size="14.00">&#45;0.59</text>
</g>
<!-- I3 -->
<g id="node4" class="node">
<title>I3</title>
<ellipse fill="white" stroke="black" cx="55" cy="-18" rx="27" ry="18"/>
<text text-anchor="middle" x="55" y="-12.95" font-family="Times,serif" font-size="14.00">I3</text>
</g>
<!-- I3&#45;&gt;H1 -->
<g id="edge6" class="edge">
<title>I3&#45;&gt;H1</title>
<path fill="none" stroke="black" d="M59.74,-36.09C63.03,-47.94 67.48,-63.98 71.27,-77.66"/>
<polygon fill="black" stroke="black" points="67.82,-78.29 73.86,-86.99 74.56,-76.42 67.82,-78.29"/>
<text text-anchor="middle" x="44.75" y="-57.2" font-family="Times,serif" font-size="14.00">&#45;0.68</text>
</g>
<!-- I3&#45;&gt;H1 -->
<g id="edge10" class="edge">
<title>I3&#45;&gt;H1</title>
<path fill="none" stroke="black" d="M59.74,-36.09C63.03,-47.94 67.48,-63.98 71.27,-77.66"/>
<polygon fill="black" stroke="black" points="67.82,-78.29 73.86,-86.99 74.56,-76.42 67.82,-78.29"/>
<text text-anchor="middle" x="83.4" y="-57.2" font-family="Times,serif" font-size="14.00">&#45;0.04</text>
</g>
<!-- I4 -->
<g id="node5" class="node">
<title>I4</title>
<ellipse fill="white" stroke="black" cx="415" cy="-18" rx="27" ry="18"/>
<text text-anchor="middle" x="415" y="-12.95" font-family="Times,serif" font-size="14.00">I4</text>
</g>
<!-- I4&#45;&gt;H0 -->
<g id="edge2" class="edge">
<title>I4&#45;&gt;H0</title>
<path fill="none" stroke="black" d="M401.76,-34.07C390.1,-47.34 372.93,-66.88 359.5,-82.17"/>
<polygon fill="black" stroke="black" points="357.06,-79.65 353.09,-89.47 362.32,-84.27 357.06,-79.65"/>
<text text-anchor="middle" x="398.12" y="-57.2" font-family="Times,serif" font-size="14.00">0.95</text>
</g>
<!-- O0 -->
<g id="node9" class="node">
<title>O0</title>
<ellipse fill="white" stroke="black" cx="209" cy="-195" rx="27" ry="18"/>
<text text-anchor="middle" x="209" y="-189.95" font-family="Times,serif" font-size="14.00">O0</text>
</g>
<!-- H0&#45;&gt;O0 -->
<g id="edge1" class="edge">
<title>H0&#45;&gt;O0</title>
<path fill="none" stroke="black" d="M320.37,-119.89C298.56,-134.41 262.2,-158.6 236.98,-175.38"/>
<polygon fill="black" stroke="black" points="235.24,-172.34 228.85,-180.79 239.12,-178.17 235.24,-172.34"/>
<text text-anchor="middle" x="322.12" y="-145.7" font-family="Times,serif" font-size="14.00">0.58</text>
</g>
<!-- H1&#45;&gt;O0 -->
<g id="edge7" class="edge">
<title>H1&#45;&gt;O0</title>
<path fill="none" stroke="black" d="M97.63,-119.89C119.44,-134.41 155.8,-158.6 181.02,-175.38"/>
<polygon fill="black" stroke="black" points="178.88,-178.17 189.15,-180.79 182.76,-172.34 178.88,-178.17"/>
<text text-anchor="middle" x="114.75" y="-145.7" font-family="Times,serif" font-size="14.00">&#45;0.22</text>
</g>
<!-- O1 -->
<g id="node10" class="node">
<title>O1</title>
<ellipse fill="white" stroke="black" cx="27" cy="-195" rx="27" ry="18"/>
<text text-anchor="middle" x="27" y="-189.95" font-family="Times,serif" font-size="14.00">O1</text>
</g>
<!-- H1&#45;&gt;O1 -->
<g id="edge8" class="edge">
<title>H1&#45;&gt;O1</title>
<path fill="none" stroke="black" d="M69.22,-123.77C61.74,-136.21 51.27,-153.62 42.64,-167.99"/>
<polygon fill="black" stroke="black" points="39.67,-166.13 37.52,-176.51 45.67,-169.74 39.67,-166.13"/>
<text text-anchor="middle" x="42.75" y="-145.7" font-family="Times,serif" font-size="14.00">&#45;0.24</text>
</g>
<!-- H2&#45;&gt;O0 -->
<g id="edge11" class="edge">
<title>H2&#45;&gt;O0</title>
<path fill="none" stroke="black" d="M188.14,-124.59C191.7,-136.44 196.52,-152.48 200.63,-166.16"/>
<polygon fill="black" stroke="black" points="197.21,-166.93 203.44,-175.5 203.91,-164.91 197.21,-166.93"/>
<text text-anchor="middle" x="279.25" y="-145.7" font-family="Times,serif" font-size="14.00">&#45;0.91</text>
</g>
<!-- H2&#45;&gt;O0 -->
<g id="edge12" class="edge">
<title>H2&#45;&gt;O0</title>
<path fill="none" stroke="black" d="M188.14,-124.59C191.7,-136.44 196.52,-152.48 200.63,-166.16"/>
<polygon fill="black" stroke="black" points="197.21,-166.93 203.44,-175.5 203.91,-164.91 197.21,-166.93"/>
<text text-anchor="middle" x="146.75" y="-145.7" font-family="Times,serif" font-size="14.00">&#45;0.55</text>
</g>
<!-- H2&#45;&gt;O0 -->
<g id="edge13" class="edge">
<title>H2&#45;&gt;O0</title>
<path fill="none" stroke="black" d="M188.14,-124.59C191.7,-136.44 196.52,-152.48 200.63,-166.16"/>
<polygon fill="black" stroke="black" points="197.21,-166.93 203.44,-175.5 203.91,-164.91 197.21,-166.93"/>
<text text-anchor="middle" x="198.75" y="-145.7" font-family="Times,serif" font-size="14.00">&#45;0.08</text>
</g>
<!-- H2&#45;&gt;O0 -->
<g id="edge15" class="edge">
<title>H2&#45;&gt;O0</title>
<path fill="none" stroke="black" d="M188.14,-124.59C191.7,-136.44 196.52,-152.48 200.63,-166.16"/>
<polygon fill="black" stroke="black" points="197.21,-166.93 203.44,-175.5 203.91,-164.91 197.21,-166.93"/>
<text text-anchor="middle" x="227.25" y="-145.7" font-family="Times,serif" font-size="14.00">&#45;0.31</text>
</g>
</g>
</svg>
