<?xml version="1.0" encoding="UTF-8" standalone="no"?>
<!DOCTYPE svg PUBLIC "-//W3C//DTD SVG 1.1//EN"
 "http://www.w3.org/Graphics/SVG/1.1/DTD/svg11.dtd">
<!-- Generated by graphviz version 12.2.1 (20241206.2353)
 -->
<!-- Pages: 1 -->
<svg width="422pt" height="332pt"
 viewBox="0.00 0.00 422.00 332.00" xmlns="http://www.w3.org/2000/svg" xmlns:xlink="http://www.w3.org/1999/xlink">
<g id="graph0" class="graph" transform="scale(1 1) rotate(0) translate(4 328)">
<polygon fill="white" stroke="none" points="-4,4 -4,-328 418,-328 418,4 -4,4"/>
<!-- 4733972640 -->
<g id="node1" class="node">
<title>4733972640</title>
<ellipse fill="none" stroke="black" cx="279" cy="-306" rx="27" ry="18"/>
<text text-anchor="middle" x="279" y="-300.95" font-family="Times,serif" font-size="14.00">add</text>
</g>
<!-- 4821470032 -->
<g id="node2" class="node">
<title>4821470032</title>
<ellipse fill="none" stroke="black" cx="207" cy="-234" rx="27" ry="18"/>
<text text-anchor="middle" x="207" y="-228.95" font-family="Times,serif" font-size="14.00">div</text>
</g>
<!-- 4733972640&#45;&gt;4821470032 -->
<g id="edge9" class="edge">
<title>4733972640&#45;&gt;4821470032</title>
<path fill="none" stroke="black" d="M264.08,-290.5C254.23,-280.92 241.14,-268.19 229.97,-257.34"/>
<polygon fill="black" stroke="black" points="232.59,-255 222.98,-250.54 227.71,-260.02 232.59,-255"/>
</g>
<!-- 5002115104 -->
<g id="node11" class="node">
<title>5002115104</title>
<ellipse fill="none" stroke="black" cx="315" cy="-234" rx="27" ry="18"/>
<text text-anchor="middle" x="315" y="-228.95" font-family="Times,serif" font-size="14.00">add</text>
</g>
<!-- 4733972640&#45;&gt;5002115104 -->
<g id="edge14" class="edge">
<title>4733972640&#45;&gt;5002115104</title>
<path fill="none" stroke="black" d="M287.35,-288.76C291.58,-280.55 296.81,-270.37 301.58,-261.09"/>
<polygon fill="black" stroke="black" points="304.54,-262.99 306,-252.49 298.32,-259.79 304.54,-262.99"/>
</g>
<!-- 5002082816 -->
<g id="node3" class="node">
<title>5002082816</title>
<ellipse fill="none" stroke="black" cx="99" cy="-162" rx="27" ry="18"/>
<text text-anchor="middle" x="99" y="-156.95" font-family="Times,serif" font-size="14.00">mul</text>
</g>
<!-- 4821470032&#45;&gt;5002082816 -->
<g id="edge3" class="edge">
<title>4821470032&#45;&gt;5002082816</title>
<path fill="none" stroke="black" d="M188.19,-220.81C171.41,-209.93 146.61,-193.86 127.41,-181.42"/>
<polygon fill="black" stroke="black" points="129.52,-178.61 119.23,-176.11 125.72,-184.49 129.52,-178.61"/>
</g>
<!-- 5002074224 -->
<g id="node6" class="node">
<title>5002074224</title>
<ellipse fill="none" stroke="black" cx="207" cy="-162" rx="27" ry="18"/>
<text text-anchor="middle" x="207" y="-156.95" font-family="Times,serif" font-size="14.00">mul</text>
</g>
<!-- 4821470032&#45;&gt;5002074224 -->
<g id="edge8" class="edge">
<title>4821470032&#45;&gt;5002074224</title>
<path fill="none" stroke="black" d="M207,-215.7C207,-208.41 207,-199.73 207,-191.54"/>
<polygon fill="black" stroke="black" points="210.5,-191.62 207,-181.62 203.5,-191.62 210.5,-191.62"/>
</g>
<!-- 5002080080 -->
<g id="node4" class="node">
<title>5002080080</title>
<ellipse fill="none" stroke="black" cx="27" cy="-90" rx="27" ry="18"/>
<text text-anchor="middle" x="27" y="-84.95" font-family="Times,serif" font-size="14.00">x</text>
</g>
<!-- 5002082816&#45;&gt;5002080080 -->
<g id="edge1" class="edge">
<title>5002082816&#45;&gt;5002080080</title>
<path fill="none" stroke="black" d="M84.08,-146.5C74.23,-136.92 61.14,-124.19 49.97,-113.34"/>
<polygon fill="black" stroke="black" points="52.59,-111 42.98,-106.54 47.71,-116.02 52.59,-111"/>
</g>
<!-- 5002072928 -->
<g id="node5" class="node">
<title>5002072928</title>
<ellipse fill="none" stroke="black" cx="99" cy="-90" rx="27" ry="18"/>
<text text-anchor="middle" x="99" y="-84.95" font-family="Times,serif" font-size="14.00">x</text>
</g>
<!-- 5002082816&#45;&gt;5002072928 -->
<g id="edge2" class="edge">
<title>5002082816&#45;&gt;5002072928</title>
<path fill="none" stroke="black" d="M99,-143.7C99,-136.41 99,-127.73 99,-119.54"/>
<polygon fill="black" stroke="black" points="102.5,-119.62 99,-109.62 95.5,-119.62 102.5,-119.62"/>
</g>
<!-- 5002072256 -->
<g id="node7" class="node">
<title>5002072256</title>
<ellipse fill="none" stroke="black" cx="171" cy="-90" rx="27" ry="18"/>
<text text-anchor="middle" x="171" y="-84.95" font-family="Times,serif" font-size="14.00">0</text>
</g>
<!-- 5002074224&#45;&gt;5002072256 -->
<g id="edge4" class="edge">
<title>5002074224&#45;&gt;5002072256</title>
<path fill="none" stroke="black" d="M198.65,-144.76C194.42,-136.55 189.19,-126.37 184.42,-117.09"/>
<polygon fill="black" stroke="black" points="187.68,-115.79 180,-108.49 181.46,-118.99 187.68,-115.79"/>
</g>
<!-- 4421056592 -->
<g id="node8" class="node">
<title>4421056592</title>
<ellipse fill="none" stroke="black" cx="243" cy="-90" rx="27" ry="18"/>
<text text-anchor="middle" x="243" y="-84.95" font-family="Times,serif" font-size="14.00">sub</text>
</g>
<!-- 5002074224&#45;&gt;4421056592 -->
<g id="edge7" class="edge">
<title>5002074224&#45;&gt;4421056592</title>
<path fill="none" stroke="black" d="M215.35,-144.76C219.58,-136.55 224.81,-126.37 229.58,-117.09"/>
<polygon fill="black" stroke="black" points="232.54,-118.99 234,-108.49 226.32,-115.79 232.54,-118.99"/>
</g>
<!-- 4421046896 -->
<g id="node9" class="node">
<title>4421046896</title>
<ellipse fill="none" stroke="black" cx="207" cy="-18" rx="27" ry="18"/>
<text text-anchor="middle" x="207" y="-12.95" font-family="Times,serif" font-size="14.00">5</text>
</g>
<!-- 4421056592&#45;&gt;4421046896 -->
<g id="edge5" class="edge">
<title>4421056592&#45;&gt;4421046896</title>
<path fill="none" stroke="black" d="M234.65,-72.76C230.42,-64.55 225.19,-54.37 220.42,-45.09"/>
<polygon fill="black" stroke="black" points="223.68,-43.79 216,-36.49 217.46,-46.99 223.68,-43.79"/>
</g>
<!-- 4421042720 -->
<g id="node10" class="node">
<title>4421042720</title>
<ellipse fill="none" stroke="black" cx="279" cy="-18" rx="27" ry="18"/>
<text text-anchor="middle" x="279" y="-12.95" font-family="Times,serif" font-size="14.00">&#45;5</text>
</g>
<!-- 4421056592&#45;&gt;4421042720 -->
<g id="edge6" class="edge">
<title>4421056592&#45;&gt;4421042720</title>
<path fill="none" stroke="black" d="M251.35,-72.76C255.58,-64.55 260.81,-54.37 265.58,-45.09"/>
<polygon fill="black" stroke="black" points="268.54,-46.99 270,-36.49 262.32,-43.79 268.54,-46.99"/>
</g>
<!-- 5002101136 -->
<g id="node12" class="node">
<title>5002101136</title>
<ellipse fill="none" stroke="black" cx="315" cy="-162" rx="27" ry="18"/>
<text text-anchor="middle" x="315" y="-156.95" font-family="Times,serif" font-size="14.00">mul</text>
</g>
<!-- 5002115104&#45;&gt;5002101136 -->
<g id="edge12" class="edge">
<title>5002115104&#45;&gt;5002101136</title>
<path fill="none" stroke="black" d="M315,-215.7C315,-208.41 315,-199.73 315,-191.54"/>
<polygon fill="black" stroke="black" points="318.5,-191.62 315,-181.62 311.5,-191.62 318.5,-191.62"/>
</g>
<!-- 5002106656 -->
<g id="node15" class="node">
<title>5002106656</title>
<ellipse fill="none" stroke="black" cx="387" cy="-162" rx="27" ry="18"/>
<text text-anchor="middle" x="387" y="-156.95" font-family="Times,serif" font-size="14.00">x</text>
</g>
<!-- 5002115104&#45;&gt;5002106656 -->
<g id="edge13" class="edge">
<title>5002115104&#45;&gt;5002106656</title>
<path fill="none" stroke="black" d="M329.92,-218.5C339.77,-208.92 352.86,-196.19 364.03,-185.34"/>
<polygon fill="black" stroke="black" points="366.29,-188.02 371.02,-178.54 361.41,-183 366.29,-188.02"/>
</g>
<!-- 5002109776 -->
<g id="node13" class="node">
<title>5002109776</title>
<ellipse fill="none" stroke="black" cx="315" cy="-90" rx="27" ry="18"/>
<text text-anchor="middle" x="315" y="-84.95" font-family="Times,serif" font-size="14.00">x</text>
</g>
<!-- 5002101136&#45;&gt;5002109776 -->
<g id="edge10" class="edge">
<title>5002101136&#45;&gt;5002109776</title>
<path fill="none" stroke="black" d="M315,-143.7C315,-136.41 315,-127.73 315,-119.54"/>
<polygon fill="black" stroke="black" points="318.5,-119.62 315,-109.62 311.5,-119.62 318.5,-119.62"/>
</g>
<!-- 5002103584 -->
<g id="node14" class="node">
<title>5002103584</title>
<ellipse fill="none" stroke="black" cx="387" cy="-90" rx="27" ry="18"/>
<text text-anchor="middle" x="387" y="-84.95" font-family="Times,serif" font-size="14.00">x</text>
</g>
<!-- 5002101136&#45;&gt;5002103584 -->
<g id="edge11" class="edge">
<title>5002101136&#45;&gt;5002103584</title>
<path fill="none" stroke="black" d="M329.92,-146.5C339.77,-136.92 352.86,-124.19 364.03,-113.34"/>
<polygon fill="black" stroke="black" points="366.29,-116.02 371.02,-106.54 361.41,-111 366.29,-116.02"/>
</g>
</g>
</svg>
