<?xml version="1.0" encoding="UTF-8" standalone="no"?>
<!DOCTYPE svg PUBLIC "-//W3C//DTD SVG 1.1//EN"
 "http://www.w3.org/Graphics/SVG/1.1/DTD/svg11.dtd">
<!-- Generated by graphviz version 12.2.1 (20241206.2353)
 -->
<!-- Pages: 1 -->
<svg width="422pt" height="260pt"
 viewBox="0.00 0.00 422.00 260.00" xmlns="http://www.w3.org/2000/svg" xmlns:xlink="http://www.w3.org/1999/xlink">
<g id="graph0" class="graph" transform="scale(1 1) rotate(0) translate(4 256)">
<polygon fill="white" stroke="none" points="-4,4 -4,-256 418,-256 418,4 -4,4"/>
<!-- 5001765616 -->
<g id="node1" class="node">
<title>5001765616</title>
<ellipse fill="none" stroke="black" cx="135" cy="-234" rx="27" ry="18"/>
<text text-anchor="middle" x="135" y="-228.95" font-family="Times,serif" font-size="14.00">add</text>
</g>
<!-- 5001762736 -->
<g id="node2" class="node">
<title>5001762736</title>
<ellipse fill="none" stroke="black" cx="99" cy="-162" rx="27" ry="18"/>
<text text-anchor="middle" x="99" y="-156.95" font-family="Times,serif" font-size="14.00">sub</text>
</g>
<!-- 5001765616&#45;&gt;5001762736 -->
<g id="edge5" class="edge">
<title>5001765616&#45;&gt;5001762736</title>
<path fill="none" stroke="black" d="M126.65,-216.76C122.42,-208.55 117.19,-198.37 112.42,-189.09"/>
<polygon fill="black" stroke="black" points="115.68,-187.79 108,-180.49 109.46,-190.99 115.68,-187.79"/>
</g>
<!-- 5001758272 -->
<g id="node7" class="node">
<title>5001758272</title>
<ellipse fill="none" stroke="black" cx="207" cy="-162" rx="27" ry="18"/>
<text text-anchor="middle" x="207" y="-156.95" font-family="Times,serif" font-size="14.00">add</text>
</g>
<!-- 5001765616&#45;&gt;5001758272 -->
<g id="edge12" class="edge">
<title>5001765616&#45;&gt;5001758272</title>
<path fill="none" stroke="black" d="M149.92,-218.5C159.77,-208.92 172.86,-196.19 184.03,-185.34"/>
<polygon fill="black" stroke="black" points="186.29,-188.02 191.02,-178.54 181.41,-183 186.29,-188.02"/>
</g>
<!-- 5001758992 -->
<g id="node3" class="node">
<title>5001758992</title>
<ellipse fill="none" stroke="black" cx="27" cy="-90" rx="27" ry="18"/>
<text text-anchor="middle" x="27" y="-84.95" font-family="Times,serif" font-size="14.00">B</text>
</g>
<!-- 5001762736&#45;&gt;5001758992 -->
<g id="edge1" class="edge">
<title>5001762736&#45;&gt;5001758992</title>
<path fill="none" stroke="black" d="M84.08,-146.5C74.23,-136.92 61.14,-124.19 49.97,-113.34"/>
<polygon fill="black" stroke="black" points="52.59,-111 42.98,-106.54 47.71,-116.02 52.59,-111"/>
</g>
<!-- 5001762592 -->
<g id="node4" class="node">
<title>5001762592</title>
<ellipse fill="none" stroke="black" cx="99" cy="-90" rx="27" ry="18"/>
<text text-anchor="middle" x="99" y="-84.95" font-family="Times,serif" font-size="14.00">mul</text>
</g>
<!-- 5001762736&#45;&gt;5001762592 -->
<g id="edge4" class="edge">
<title>5001762736&#45;&gt;5001762592</title>
<path fill="none" stroke="black" d="M99,-143.7C99,-136.41 99,-127.73 99,-119.54"/>
<polygon fill="black" stroke="black" points="102.5,-119.62 99,-109.62 95.5,-119.62 102.5,-119.62"/>
</g>
<!-- 5001764656 -->
<g id="node5" class="node">
<title>5001764656</title>
<ellipse fill="none" stroke="black" cx="27" cy="-18" rx="27" ry="18"/>
<text text-anchor="middle" x="27" y="-12.95" font-family="Times,serif" font-size="14.00">A</text>
</g>
<!-- 5001762592&#45;&gt;5001764656 -->
<g id="edge2" class="edge">
<title>5001762592&#45;&gt;5001764656</title>
<path fill="none" stroke="black" d="M84.08,-74.5C74.23,-64.92 61.14,-52.19 49.97,-41.34"/>
<polygon fill="black" stroke="black" points="52.59,-39 42.98,-34.54 47.71,-44.02 52.59,-39"/>
</g>
<!-- 5001765232 -->
<g id="node6" class="node">
<title>5001765232</title>
<ellipse fill="none" stroke="black" cx="99" cy="-18" rx="27" ry="18"/>
<text text-anchor="middle" x="99" y="-12.95" font-family="Times,serif" font-size="14.00">&#45;1</text>
</g>
<!-- 5001762592&#45;&gt;5001765232 -->
<g id="edge3" class="edge">
<title>5001762592&#45;&gt;5001765232</title>
<path fill="none" stroke="black" d="M99,-71.7C99,-64.41 99,-55.73 99,-47.54"/>
<polygon fill="black" stroke="black" points="102.5,-47.62 99,-37.62 95.5,-47.62 102.5,-47.62"/>
</g>
<!-- 5001760384 -->
<g id="node8" class="node">
<title>5001760384</title>
<ellipse fill="none" stroke="black" cx="207" cy="-90" rx="27" ry="18"/>
<text text-anchor="middle" x="207" y="-84.95" font-family="Times,serif" font-size="14.00">add</text>
</g>
<!-- 5001758272&#45;&gt;5001760384 -->
<g id="edge8" class="edge">
<title>5001758272&#45;&gt;5001760384</title>
<path fill="none" stroke="black" d="M207,-143.7C207,-136.41 207,-127.73 207,-119.54"/>
<polygon fill="black" stroke="black" points="210.5,-119.62 207,-109.62 203.5,-119.62 210.5,-119.62"/>
</g>
<!-- 5001763504 -->
<g id="node11" class="node">
<title>5001763504</title>
<ellipse fill="none" stroke="black" cx="315" cy="-90" rx="27" ry="18"/>
<text text-anchor="middle" x="315" y="-84.95" font-family="Times,serif" font-size="14.00">add</text>
</g>
<!-- 5001758272&#45;&gt;5001763504 -->
<g id="edge11" class="edge">
<title>5001758272&#45;&gt;5001763504</title>
<path fill="none" stroke="black" d="M225.81,-148.81C242.59,-137.93 267.39,-121.86 286.59,-109.42"/>
<polygon fill="black" stroke="black" points="288.28,-112.49 294.77,-104.11 284.48,-106.61 288.28,-112.49"/>
</g>
<!-- 5001757360 -->
<g id="node9" class="node">
<title>5001757360</title>
<ellipse fill="none" stroke="black" cx="171" cy="-18" rx="27" ry="18"/>
<text text-anchor="middle" x="171" y="-12.95" font-family="Times,serif" font-size="14.00">B</text>
</g>
<!-- 5001760384&#45;&gt;5001757360 -->
<g id="edge6" class="edge">
<title>5001760384&#45;&gt;5001757360</title>
<path fill="none" stroke="black" d="M198.65,-72.76C194.42,-64.55 189.19,-54.37 184.42,-45.09"/>
<polygon fill="black" stroke="black" points="187.68,-43.79 180,-36.49 181.46,-46.99 187.68,-43.79"/>
</g>
<!-- 5001763984 -->
<g id="node10" class="node">
<title>5001763984</title>
<ellipse fill="none" stroke="black" cx="243" cy="-18" rx="27" ry="18"/>
<text text-anchor="middle" x="243" y="-12.95" font-family="Times,serif" font-size="14.00">D</text>
</g>
<!-- 5001760384&#45;&gt;5001763984 -->
<g id="edge7" class="edge">
<title>5001760384&#45;&gt;5001763984</title>
<path fill="none" stroke="black" d="M215.35,-72.76C219.58,-64.55 224.81,-54.37 229.58,-45.09"/>
<polygon fill="black" stroke="black" points="232.54,-46.99 234,-36.49 226.32,-43.79 232.54,-46.99"/>
</g>
<!-- 5001759136 -->
<g id="node12" class="node">
<title>5001759136</title>
<ellipse fill="none" stroke="black" cx="315" cy="-18" rx="27" ry="18"/>
<text text-anchor="middle" x="315" y="-12.95" font-family="Times,serif" font-size="14.00">A</text>
</g>
<!-- 5001763504&#45;&gt;5001759136 -->
<g id="edge9" class="edge">
<title>5001763504&#45;&gt;5001759136</title>
<path fill="none" stroke="black" d="M315,-71.7C315,-64.41 315,-55.73 315,-47.54"/>
<polygon fill="black" stroke="black" points="318.5,-47.62 315,-37.62 311.5,-47.62 318.5,-47.62"/>
</g>
<!-- 5001762640 -->
<g id="node13" class="node">
<title>5001762640</title>
<ellipse fill="none" stroke="black" cx="387" cy="-18" rx="27" ry="18"/>
<text text-anchor="middle" x="387" y="-12.95" font-family="Times,serif" font-size="14.00">&#45;2</text>
</g>
<!-- 5001763504&#45;&gt;5001762640 -->
<g id="edge10" class="edge">
<title>5001763504&#45;&gt;5001762640</title>
<path fill="none" stroke="black" d="M329.92,-74.5C339.77,-64.92 352.86,-52.19 364.03,-41.34"/>
<polygon fill="black" stroke="black" points="366.29,-44.02 371.02,-34.54 361.41,-39 366.29,-44.02"/>
</g>
</g>
</svg>
