<?xml version="1.0" encoding="UTF-8" standalone="no"?>
<!DOCTYPE svg PUBLIC "-//W3C//DTD SVG 1.1//EN"
 "http://www.w3.org/Graphics/SVG/1.1/DTD/svg11.dtd">
<!-- Generated by graphviz version 12.2.1 (20241206.2353)
 -->
<!-- Pages: 1 -->
<svg width="422pt" height="404pt"
 viewBox="0.00 0.00 422.00 404.00" xmlns="http://www.w3.org/2000/svg" xmlns:xlink="http://www.w3.org/1999/xlink">
<g id="graph0" class="graph" transform="scale(1 1) rotate(0) translate(4 400)">
<polygon fill="white" stroke="none" points="-4,4 -4,-400 418,-400 418,4 -4,4"/>
<!-- 5001758656 -->
<g id="node1" class="node">
<title>5001758656</title>
<ellipse fill="none" stroke="black" cx="135" cy="-378" rx="27" ry="18"/>
<text text-anchor="middle" x="135" y="-372.95" font-family="Times,serif" font-size="14.00">add</text>
</g>
<!-- 5001765328 -->
<g id="node2" class="node">
<title>5001765328</title>
<ellipse fill="none" stroke="black" cx="99" cy="-306" rx="27" ry="18"/>
<text text-anchor="middle" x="99" y="-300.95" font-family="Times,serif" font-size="14.00">sub</text>
</g>
<!-- 5001758656&#45;&gt;5001765328 -->
<g id="edge9" class="edge">
<title>5001758656&#45;&gt;5001765328</title>
<path fill="none" stroke="black" d="M126.65,-360.76C122.42,-352.55 117.19,-342.37 112.42,-333.09"/>
<polygon fill="black" stroke="black" points="115.68,-331.79 108,-324.49 109.46,-334.99 115.68,-331.79"/>
</g>
<!-- 5001759856 -->
<g id="node11" class="node">
<title>5001759856</title>
<ellipse fill="none" stroke="black" cx="207" cy="-306" rx="27" ry="18"/>
<text text-anchor="middle" x="207" y="-300.95" font-family="Times,serif" font-size="14.00">add</text>
</g>
<!-- 5001758656&#45;&gt;5001759856 -->
<g id="edge16" class="edge">
<title>5001758656&#45;&gt;5001759856</title>
<path fill="none" stroke="black" d="M149.92,-362.5C159.77,-352.92 172.86,-340.19 184.03,-329.34"/>
<polygon fill="black" stroke="black" points="186.29,-332.02 191.02,-322.54 181.41,-327 186.29,-332.02"/>
</g>
<!-- 5001764704 -->
<g id="node3" class="node">
<title>5001764704</title>
<ellipse fill="none" stroke="black" cx="27" cy="-234" rx="27" ry="18"/>
<text text-anchor="middle" x="27" y="-228.95" font-family="Times,serif" font-size="14.00">B</text>
</g>
<!-- 5001765328&#45;&gt;5001764704 -->
<g id="edge1" class="edge">
<title>5001765328&#45;&gt;5001764704</title>
<path fill="none" stroke="black" d="M84.08,-290.5C74.23,-280.92 61.14,-268.19 49.97,-257.34"/>
<polygon fill="black" stroke="black" points="52.59,-255 42.98,-250.54 47.71,-260.02 52.59,-255"/>
</g>
<!-- 5001757312 -->
<g id="node4" class="node">
<title>5001757312</title>
<ellipse fill="none" stroke="black" cx="99" cy="-234" rx="27" ry="18"/>
<text text-anchor="middle" x="99" y="-228.95" font-family="Times,serif" font-size="14.00">mul</text>
</g>
<!-- 5001765328&#45;&gt;5001757312 -->
<g id="edge8" class="edge">
<title>5001765328&#45;&gt;5001757312</title>
<path fill="none" stroke="black" d="M99,-287.7C99,-280.41 99,-271.73 99,-263.54"/>
<polygon fill="black" stroke="black" points="102.5,-263.62 99,-253.62 95.5,-263.62 102.5,-263.62"/>
</g>
<!-- 5001766192 -->
<g id="node5" class="node">
<title>5001766192</title>
<ellipse fill="none" stroke="black" cx="27" cy="-162" rx="27" ry="18"/>
<text text-anchor="middle" x="27" y="-156.95" font-family="Times,serif" font-size="14.00">A</text>
</g>
<!-- 5001757312&#45;&gt;5001766192 -->
<g id="edge2" class="edge">
<title>5001757312&#45;&gt;5001766192</title>
<path fill="none" stroke="black" d="M84.08,-218.5C74.23,-208.92 61.14,-196.19 49.97,-185.34"/>
<polygon fill="black" stroke="black" points="52.59,-183 42.98,-178.54 47.71,-188.02 52.59,-183"/>
</g>
<!-- 5001760672 -->
<g id="node6" class="node">
<title>5001760672</title>
<ellipse fill="none" stroke="black" cx="99" cy="-162" rx="27" ry="18"/>
<text text-anchor="middle" x="99" y="-156.95" font-family="Times,serif" font-size="14.00">mul</text>
</g>
<!-- 5001757312&#45;&gt;5001760672 -->
<g id="edge7" class="edge">
<title>5001757312&#45;&gt;5001760672</title>
<path fill="none" stroke="black" d="M99,-215.7C99,-208.41 99,-199.73 99,-191.54"/>
<polygon fill="black" stroke="black" points="102.5,-191.62 99,-181.62 95.5,-191.62 102.5,-191.62"/>
</g>
<!-- 5001764320 -->
<g id="node7" class="node">
<title>5001764320</title>
<ellipse fill="none" stroke="black" cx="63" cy="-90" rx="27" ry="18"/>
<text text-anchor="middle" x="63" y="-84.95" font-family="Times,serif" font-size="14.00">A</text>
</g>
<!-- 5001760672&#45;&gt;5001764320 -->
<g id="edge3" class="edge">
<title>5001760672&#45;&gt;5001764320</title>
<path fill="none" stroke="black" d="M90.65,-144.76C86.42,-136.55 81.19,-126.37 76.42,-117.09"/>
<polygon fill="black" stroke="black" points="79.68,-115.79 72,-108.49 73.46,-118.99 79.68,-115.79"/>
</g>
<!-- 5001763168 -->
<g id="node8" class="node">
<title>5001763168</title>
<ellipse fill="none" stroke="black" cx="135" cy="-90" rx="27" ry="18"/>
<text text-anchor="middle" x="135" y="-84.95" font-family="Times,serif" font-size="14.00">mul</text>
</g>
<!-- 5001760672&#45;&gt;5001763168 -->
<g id="edge6" class="edge">
<title>5001760672&#45;&gt;5001763168</title>
<path fill="none" stroke="black" d="M107.35,-144.76C111.58,-136.55 116.81,-126.37 121.58,-117.09"/>
<polygon fill="black" stroke="black" points="124.54,-118.99 126,-108.49 118.32,-115.79 124.54,-118.99"/>
</g>
<!-- 5001758224 -->
<g id="node9" class="node">
<title>5001758224</title>
<ellipse fill="none" stroke="black" cx="99" cy="-18" rx="27" ry="18"/>
<text text-anchor="middle" x="99" y="-12.95" font-family="Times,serif" font-size="14.00">4</text>
</g>
<!-- 5001763168&#45;&gt;5001758224 -->
<g id="edge4" class="edge">
<title>5001763168&#45;&gt;5001758224</title>
<path fill="none" stroke="black" d="M126.65,-72.76C122.42,-64.55 117.19,-54.37 112.42,-45.09"/>
<polygon fill="black" stroke="black" points="115.68,-43.79 108,-36.49 109.46,-46.99 115.68,-43.79"/>
</g>
<!-- 5001757504 -->
<g id="node10" class="node">
<title>5001757504</title>
<ellipse fill="none" stroke="black" cx="171" cy="-18" rx="27" ry="18"/>
<text text-anchor="middle" x="171" y="-12.95" font-family="Times,serif" font-size="14.00">C</text>
</g>
<!-- 5001763168&#45;&gt;5001757504 -->
<g id="edge5" class="edge">
<title>5001763168&#45;&gt;5001757504</title>
<path fill="none" stroke="black" d="M143.35,-72.76C147.58,-64.55 152.81,-54.37 157.58,-45.09"/>
<polygon fill="black" stroke="black" points="160.54,-46.99 162,-36.49 154.32,-43.79 160.54,-46.99"/>
</g>
<!-- 5001761728 -->
<g id="node12" class="node">
<title>5001761728</title>
<ellipse fill="none" stroke="black" cx="207" cy="-234" rx="27" ry="18"/>
<text text-anchor="middle" x="207" y="-228.95" font-family="Times,serif" font-size="14.00">add</text>
</g>
<!-- 5001759856&#45;&gt;5001761728 -->
<g id="edge12" class="edge">
<title>5001759856&#45;&gt;5001761728</title>
<path fill="none" stroke="black" d="M207,-287.7C207,-280.41 207,-271.73 207,-263.54"/>
<polygon fill="black" stroke="black" points="210.5,-263.62 207,-253.62 203.5,-263.62 210.5,-263.62"/>
</g>
<!-- 5001765136 -->
<g id="node15" class="node">
<title>5001765136</title>
<ellipse fill="none" stroke="black" cx="315" cy="-234" rx="27" ry="18"/>
<text text-anchor="middle" x="315" y="-228.95" font-family="Times,serif" font-size="14.00">add</text>
</g>
<!-- 5001759856&#45;&gt;5001765136 -->
<g id="edge15" class="edge">
<title>5001759856&#45;&gt;5001765136</title>
<path fill="none" stroke="black" d="M225.81,-292.81C242.59,-281.93 267.39,-265.86 286.59,-253.42"/>
<polygon fill="black" stroke="black" points="288.28,-256.49 294.77,-248.11 284.48,-250.61 288.28,-256.49"/>
</g>
<!-- 5001766240 -->
<g id="node13" class="node">
<title>5001766240</title>
<ellipse fill="none" stroke="black" cx="171" cy="-162" rx="27" ry="18"/>
<text text-anchor="middle" x="171" y="-156.95" font-family="Times,serif" font-size="14.00">B</text>
</g>
<!-- 5001761728&#45;&gt;5001766240 -->
<g id="edge10" class="edge">
<title>5001761728&#45;&gt;5001766240</title>
<path fill="none" stroke="black" d="M198.65,-216.76C194.42,-208.55 189.19,-198.37 184.42,-189.09"/>
<polygon fill="black" stroke="black" points="187.68,-187.79 180,-180.49 181.46,-190.99 187.68,-187.79"/>
</g>
<!-- 5001766096 -->
<g id="node14" class="node">
<title>5001766096</title>
<ellipse fill="none" stroke="black" cx="243" cy="-162" rx="27" ry="18"/>
<text text-anchor="middle" x="243" y="-156.95" font-family="Times,serif" font-size="14.00">D</text>
</g>
<!-- 5001761728&#45;&gt;5001766096 -->
<g id="edge11" class="edge">
<title>5001761728&#45;&gt;5001766096</title>
<path fill="none" stroke="black" d="M215.35,-216.76C219.58,-208.55 224.81,-198.37 229.58,-189.09"/>
<polygon fill="black" stroke="black" points="232.54,-190.99 234,-180.49 226.32,-187.79 232.54,-190.99"/>
</g>
<!-- 5001762544 -->
<g id="node16" class="node">
<title>5001762544</title>
<ellipse fill="none" stroke="black" cx="315" cy="-162" rx="27" ry="18"/>
<text text-anchor="middle" x="315" y="-156.95" font-family="Times,serif" font-size="14.00">A</text>
</g>
<!-- 5001765136&#45;&gt;5001762544 -->
<g id="edge13" class="edge">
<title>5001765136&#45;&gt;5001762544</title>
<path fill="none" stroke="black" d="M315,-215.7C315,-208.41 315,-199.73 315,-191.54"/>
<polygon fill="black" stroke="black" points="318.5,-191.62 315,-181.62 311.5,-191.62 318.5,-191.62"/>
</g>
<!-- 5001759760 -->
<g id="node17" class="node">
<title>5001759760</title>
<ellipse fill="none" stroke="black" cx="387" cy="-162" rx="27" ry="18"/>
<text text-anchor="middle" x="387" y="-156.95" font-family="Times,serif" font-size="14.00">&#45;2</text>
</g>
<!-- 5001765136&#45;&gt;5001759760 -->
<g id="edge14" class="edge">
<title>5001765136&#45;&gt;5001759760</title>
<path fill="none" stroke="black" d="M329.92,-218.5C339.77,-208.92 352.86,-196.19 364.03,-185.34"/>
<polygon fill="black" stroke="black" points="366.29,-188.02 371.02,-178.54 361.41,-183 366.29,-188.02"/>
</g>
</g>
</svg>
